<?xml version="1.0" encoding="UTF-8"?>
<svg id="Ryunosuke.M" xmlns="http://www.w3.org/2000/svg" viewBox="0 0 1138.78 340.76">
  <defs>
    <style>
      .cls-1 {
        fill: none;
      }

      .cls-2 {
        fill: #231815;
      }
    </style>
  </defs>
  <g>
    <path class="cls-2" d="M139.5,260.57c16.48,24.4,34.73,35.56,55.13,35.56,3.14,0,6.47-.15,9.81-.6,2.75-.3,2.75-2.83,5.69-3.42,1.37-.3,2.75-.6,3.92-.6,1.37,0,2.16,1.04,2.16,2.08,0,4.76-18.25,5.21-24.13,5.21-23.74,0-44.73-8.78-62.78-34.23-15.7-22.02-21.58-43.45-36.69-52.97-2.16-1.19-11.58-1.34-11.58-3.27,0-1.19,3.33-4.02,5.1-5.06.78-.45,3.14-.45,5.69-.45s5.3.15,7.85.45c6.47.74,4.12,2.53,8.63,2.53,28.45-1.79,78.09-23.66,78.09-41.52,0-7.14-10.01-12.8-42.77-12.8-49.05,0-105.95,13.69-112.81,18.01-6.87,4.32-3.73,6.4-15.7,9.52-3.73.89-8.83,2.98-12.95,2.98-1.37,0-2.16-.45-2.16-1.64,0-1.04.59-3.57,1.57-5.65,1.57-3.57,5.3-4.91,8.24-5.95,41.2-14.58,94.76-20.54,135.38-20.54s55.92,6.4,55.92,16.37c0,22.17-56.9,44.64-97.12,44.64,15.7,8.33,21.78,30.95,35.51,51.34ZM133.02,158.94c0,1.49-.98,3.72-3.14,6.1-3.92,4.32-10.59,8.18-14.13,8.18-9.02,0-25.31,14.43-43.36,33.18-17.27,18-31.59,42.11-38.65,56.4-.39.89-1.18,1.34-2.16,1.34-2.35,0-8.04-3.72-8.04-6.7,0-.74.2-1.49.59-2.23,7.26-12.8,24.13-34.67,42.57-53.27,19.62-19.79,40.81-36.46,55.13-45.39,1.37-.89,4.51-2.38,6.08-2.38,2.94,0,5.1,2.98,5.1,4.76Z"/>
    <path class="cls-2" d="M186.74,226.19c1.57-1.19,3.73-2.08,4.91-2.08,2.55,0,5.3,4.46,5.3,6.1,0,1.04-.59,2.23-.98,2.68-2.35,3.12-18.25,21.73-18.25,23.66,0,1.34,1.77,1.79,2.94,1.79,10.2,0,40.42-19.2,46.69-27.08,2.55-3.12,4.71-6.7,6.87-6.7,3.14,0,5.49,5.21,5.49,6.84,0,3.12-3.14,7.89-7.06,8.48-2.75.45-4.51,2.98-6.08,5.51-1.57,2.53-11.18,16.67-14.32,21.28,22.17-5.21,33.55-11.76,38.65-14.73,2.16-1.19,1.77-4.61,3.92-5.95,1.96-1.19,4.32-2.38,5.49-2.38.78,0,1.18.74,1.37,1.79,0,1.79-3.92,5.95-9.61,9.08-5.1,2.83-17.85,9.67-42.18,15.18-6.47,9.38-15.89,21.73-24.52,32.29-17.07,20.53-43.95,38.84-65.14,38.84-12.95,0-23.15-7.59-23.15-17.11s9.61-21.73,24.72-30.36c22.56-12.95,41.2-17.71,80.05-24.55,7.46-10.57,13.15-18,17.85-25.45,0-.45-.2-.45-.2-.45-.78,0-31.59,20.83-46.11,20.83-3.73,0-6.47-1.93-6.47-4.76,0-9.08,13.34-15.77,13.34-21.72,0-5.21,3.34-8.18,6.47-11.01ZM104.14,321.72c0,7.29,6.67,11.9,15.7,11.9,15.5,0,42.38-17.26,57.09-34.08,7.46-8.63,16.09-18.75,22.76-27.98-32.18,5.51-53.37,11.61-74.56,23.66-12.56,7.14-20.99,18.6-20.99,26.49Z"/>
    <path class="cls-2" d="M260.95,235.71c0-3.12,3.14-6.55,6.08-9.38,1.37-1.34,3.14-2.08,4.91-2.08s3.73,2.53,5.1,4.61c.39.45.39.89.39,1.34,0,2.38-11.77,15.77-14.52,19.49-2.55,3.27-3.92,5.51-3.92,6.7,0,.89.78,1.64,2.35,1.64,8.63,0,41.99-19.64,48.07-28.87,1.96-2.98,3.14-4.46,5.69-4.46,2.75,0,4.91,4.76,4.91,6.1,0,2.38-4.12,9.97-8.24,10.12-1.37,0-2.16.74-4.32,3.27-2.55,2.83-8.04,9.23-8.04,13.09,0,1.64,2.35,2.23,4.71,2.23,8.44,0,26.29-6.99,33.55-12.05,2.16-1.49.98-2.53,3.14-3.87,1.96-1.19,3.14-1.79,3.92-1.79,1.18,0,1.77.3,1.77,1.19,0,1.64-2.75,3.72-7.65,6.7-10.99,6.7-27.27,13.09-40.02,13.09-4.32,0-7.65-1.34-7.65-4.32,0-3.87,2.35-8.63,8.44-15.48,0-.3,0-.74-.2-.59-9.42,6.99-35.32,20.39-45.32,20.39-4.51,0-6.08-1.34-6.08-4.46,0-8.04,12.95-14.73,12.95-21.13v-1.49Z"/>
    <path class="cls-2" d="M397.35,232.54c0-1.34-.98-2.08-2.16-2.08-12.16,0-46.89,20.83-52.97,31.4-.39.74-1.77,1.04-2.35,1.04-2.55,0-4.51-1.93-4.51-4.46,0-1.93,9.42-13.99,11.38-16.22,1.57-1.79,3.14-3.87,3.14-5.65,0-1.04-.39-1.64-.39-2.38,0-2.68,2.94-4.76,6.28-8.04.98-1.04,1.96-1.79,3.53-1.79,2.35,0,5.3,4.76,5.3,6.25,0,1.04-.59,2.23-.98,2.68-1.37,1.79-11.77,13.39-12.95,15.18,10.2-6.7,37.47-23.96,51.01-23.96,5.69,0,7.46,2.38,7.46,5.21,0,9.67-20.01,21.58-20.01,28.57,0,1.04,1.77,2.08,3.92,2.08,10.2,0,28.25-7.14,36.49-12.95,2.16-1.49.98-2.53,3.14-3.87,1.96-1.19,3.14-1.79,3.92-1.79,1.18,0,1.57.89,1.57,1.49,0,1.64-2.75,3.72-7.65,6.7-10.99,6.7-27.27,13.1-40.02,13.1-4.71,0-8.44-1.93-8.44-5.06,0-9.67,15.3-20.83,15.3-25.45Z"/>
    <path class="cls-2" d="M481.7,252.67c6.67,0,12.56-1.64,18.05-5.06,1.96-1.34.98-2.23,3.14-3.57,1.96-1.19,4.12-2.08,5.1-2.08.59,0,1.37.3,1.37,1.34,0,1.64-3.73,3.87-9.02,6.84-5.49,2.98-11.77,4.76-18.44,4.76-4.12,0-8.63-.6-13.15-2.08-6.08,4.17-17.07,10.27-25.51,10.27-7.46,0-10.59-5.21-10.59-9.82,0-5.21,3.34-11.9,11.77-18.3,5.3-3.87,10.2-6.4,14.71-7.89,4.32-5.36,11.58-8.33,17.85-8.33s11.18,2.98,11.18,9.23c0,9.52-8.44,17.41-16.68,23.21,3.34,1.19,6.47,1.49,10.2,1.49ZM465.42,251.47c-6.47-3.42-10.01-9.82-10.01-14.73-7.65,4.61-15.11,14.73-15.11,18.75,0,2.98,1.57,4.61,5.49,4.61,5.1,0,14.71-4.91,19.62-8.63ZM478.76,227.67c0,.45-.2,1.19-1.77,1.19-5.49,0-13.93,2.83-18.64,6.25,0,6.1,4.12,11.01,9.61,14.58,7.46-6.1,13.15-15.33,13.15-20.83,0-4.91-3.92-6.99-7.26-6.99-3.73,0-6.67.89-10.59,4.17,1.96-.3,4.51-.6,6.47-.6,2.94,0,5.3.3,8.24,1.34.59.3.78.59.78.89Z"/>
    <path class="cls-2" d="M545.07,243.44c0,6.7-3.92,11.46-11.77,15.03,11.18-1.49,27.08-5.66,37.47-12.95,2.16-1.49.98-2.53,3.14-3.87,1.77-1.19,3.73-1.93,4.51-1.93.59,0,1.18.74,1.18,1.49,0,1.49-2.94,3.87-8.04,6.99-13.54,8.33-31.59,13.39-49.83,13.39-9.61,0-19.23-1.34-19.23-9.67,0-5.95,8.24-12.5,13.54-12.5,1.77,0,3.14.89,3.53,2.08,5.3-1.93,11.97-6.7,17.27-12.2,4.9-5.06,11.18-8.33,13.93-8.33,1.77,0,4.32,2.53,4.32,4.32s-6.28,6.99-10.4,6.99c-.78,0-1.37-.15-2.16-.45,1.37,2.98,2.55,7.44,2.55,11.61ZM515.84,257.43c8.83,0,21.39-10.57,21.39-19.49,0-1.49,0-2.98-.2-4.61-5.69,5.06-10.01,7.74-16.48,10.71,0,3.72-6.08,9.08-10.4,9.08-1.37,0-2.55-.45-3.14-1.19-.2-.3-.59-.59-.98-.59s-.59.3-.59,1.04c0,1.49,2.75,5.06,10.4,5.06Z"/>
    <path class="cls-2" d="M573,234.07c0-3.12,3.14-6.55,6.08-9.38,1.37-1.34,3.14-2.08,4.91-2.08s3.73,2.53,5.1,4.61c.39.45.39.89.39,1.34,0,2.38-11.77,15.77-14.52,19.49-2.55,3.27-3.92,5.51-3.92,6.7,0,.89.79,1.64,2.35,1.64,8.63,0,41.99-19.64,48.07-28.87,1.96-2.98,3.14-4.46,5.69-4.46,2.75,0,4.91,4.76,4.91,6.1,0,2.38-4.12,9.97-8.24,10.12-1.37,0-2.16.74-4.32,3.27-2.55,2.83-8.04,9.23-8.04,13.09,0,1.64,2.35,2.23,4.71,2.23,8.44,0,26.29-6.99,33.55-12.05,2.16-1.49.98-2.53,3.14-3.87,1.96-1.19,3.14-1.79,3.92-1.79,1.18,0,1.77.3,1.77,1.19,0,1.64-2.75,3.72-7.65,6.7-10.99,6.7-27.27,13.09-40.02,13.09-4.32,0-7.65-1.34-7.65-4.32,0-3.87,2.35-8.63,8.44-15.48,0-.3,0-.74-.2-.59-9.42,6.99-35.32,20.39-45.32,20.39-4.51,0-6.08-1.34-6.08-4.46,0-8.04,12.95-14.73,12.95-21.13v-1.49Z"/>
    <path class="cls-2" d="M729.31,245.23c1.57-1.49.2-2.68,1.77-4.46,1.77-1.49,2.94-2.38,4.32-2.38.39,0,1.37.3,1.37,1.04,0,1.79-2.94,4.91-6.87,8.33-8.24,6.99-22.17,13.39-36.49,13.39-17.27,0-24.72-11.01-24.72-15.92,0-1.49,1.57-3.12,3.14-3.12,2.35,0,4.32,1.04,6.47,1.04,6.28,0,18.25-5.36,18.25-10.86,0-1.79-1.18-2.53-2.75-2.53-10.99,0-41.59,19.94-49.64,30.36-.59.74-1.77,1.04-2.35,1.04-1.77,0-3.92-1.64-3.92-5.06,0-1.79,6.87-10.27,10.99-16.07,3.73-5.21,42.77-53.42,44.54-55.8,2.16-2.83,3.14-4.32,3.14-6.4,0-.45-.2-1.04-.2-2.38,0-3.12,2.55-5.8,5.69-8.63,1.37-1.19,3.53-2.98,5.69-2.98s5.49,4.46,5.49,6.25c0,1.04-.59,2.23-.98,2.68-1.37,1.79-8.24,9.82-12.75,15.48-17.27,21.58-42.97,54.61-44.34,56.55,0,.15,0,.74.39.74.2,0,32.96-22.47,46.69-22.47,3.92,0,7.46,1.93,7.46,4.76,0,9.97-17.07,19.05-29.04,19.05-.59,0-1.18.3-1.18.89,0,4.17,7.85,9.67,18.05,9.67,11.38,0,23.74-4.76,31.78-12.2Z"/>
    <path class="cls-2" d="M747.55,245.38c-1.18,0-3.14,0-4.51-.3-2.94,2.83-4.71,5.95-4.71,9.52,0,4.17,5.3,5.36,10.59,5.36,14.52,0,36.89-6.4,49.25-13.99,2.16-1.34,1.57-2.98,3.73-4.32,1.77-1.04,3.33-1.79,4.32-1.79s1.37.89,1.37,1.49c0,1.64-4.12,4.46-9.42,7.44-12.56,6.7-34.14,14.43-50.03,14.43-9.42,0-18.05-2.83-18.05-10.86,0-5.51,4.51-12.5,13.73-18.6,10.4-6.7,21.38-9.23,29.04-9.23,4.71,0,9.81,1.04,9.81,4.76,0,6.84-19.23,16.07-35.12,16.07ZM774.04,228.42c-6.87,0-22.37,8.48-29.23,14.43,1.37.15,2.55.15,3.73.15,14.13,0,28.84-8.18,28.84-12.95,0-1.04-1.57-1.64-3.34-1.64Z"/>
    <path class="cls-2" d="M855.54,256.53c0,2.38-3.53,6.7-7.46,6.7-2.16,0-7.06-2.23-7.06-3.57,0-1.19,1.96-2.53,3.92-5.06.79-1.19-.2-3.57,2.55-3.57,5.3,0,8.04,3.42,8.04,5.51Z"/>
    <path class="cls-2" d="M922.57,263.39c-1.96,0-8.63-3.87-8.63-7.14,0-1.04.2-2.23.98-3.27,10.2-15.18,61.21-70.24,61.21-89.73,0-7.29-5.49-9.08-13.93-9.08-18.64,0-60.43,17.11-63.57,24.7-2.35,5.8-1.77,6.25-10.4,13.24-3.53,2.98-7.26,6.1-9.61,6.1-3.14,0-6.08-3.57-6.08-7.44,0-2.68,2.16-5.95,4.51-7.59,20.01-15.18,63.18-34.22,90.84-34.22,14.13,0,18.44,7.29,18.44,16.07s-4.91,22.32-20.6,40.92c-.39.45-.59.89-.59,1.04s.2.3.39.3c.39,0,1.18-.45,1.77-.89,9.81-7.74,67.1-57.44,92.41-57.44,7.85,0,11.58,3.87,11.58,9.08,0,15.18-21.97,43.3-31.39,56.55-.2.15-.2.45-.2.59,0,.3.2.6.59.6s.79-.3,1.18-.74c12.16-12.05,59.84-57.74,83.78-57.74,8.44,0,13.54,5.51,13.54,11.16,0,27.97-55.33,71.87-55.33,99.85,0,12.05,11.58,16.52,25.5,16.52,1.37-2.98,8.83-4.17,12.56-4.17,2.55,0,3.73,1.93,3.73,2.83,0,2.53-6.67,5.66-16.29,5.66-20.99,0-34.53-8.04-34.53-24.4,0-34.67,50.42-74.55,50.42-93.89,0-4.17-1.96-6.4-7.85-6.4-9.81,0-46.89,27.53-71.22,52.23-13.15,13.24-22.76,26.49-33.94,43.3-.79,1.19-1.77,1.64-2.75,1.64-2.16,0-8.63-3.27-8.63-5.65,0-.74.2-1.34.59-1.93,16.87-23.81,58.07-77.68,58.07-91.51,0-4.17-3.33-5.8-8.04-5.8-13.34,0-51.21,26.78-83.19,55.21-20.21,18.01-36.49,37.2-43.16,50.15-.39.89-1.37,1.34-2.16,1.34Z"/>
  </g>
  <rect class="cls-1" x="922.67" width="2.44" height="0"/>
</svg>